<?xml version="1.0" encoding="UTF-8"?>
<svg width="428px" height="255px" viewBox="0 0 428 255" version="1.1" xmlns="http://www.w3.org/2000/svg" xmlns:xlink="http://www.w3.org/1999/xlink">
    <!-- Generator: Sketch 52.4 (67378) - http://www.bohemiancoding.com/sketch -->
    <title>熊@2x</title>
    <desc>Created with Sketch.</desc>
    <g id="Frame-Work" stroke="none" stroke-width="1" fill="none" fill-rule="evenodd">
        <g id="電腦版海報試驗(滿·版)" transform="translate(-478.000000, -547.000000)">
            <g id="COVER" transform="translate(-355.000000, -141.000000)">
                <g id="熊" transform="translate(833.000000, 688.000000)">
                    <polygon id="Path" fill="#D6D6D6" points="66 56.9655172 137.309859 30 149 98"></polygon>
                    <polygon id="Path" fill="#343434" points="51 103 65.1686747 57 149 98.2820513"></polygon>
                    <polygon id="Path" fill="#A4A4A4" points="50.9 103.333333 64.7640393 55.94 50.9 50.7393638 18 115"></polygon>
                    <polygon id="Path" fill="#787878" points="128 1 65.3636364 57 50 51.1666667"></polygon>
                    <polygon id="Path" fill="#FFFFFF" opacity="0.9" points="137 30.1666667 127.557377 1 65 57"></polygon>
                    <polygon id="Path" fill="#787878" points="111 164.88 149 98 141.875 186"></polygon>
                    <polygon id="Path" fill="#A4A4A4" points="51 102.701754 111.216867 165 149 98"></polygon>
                    <polygon id="Path" fill="#D6D6D6" points="54.8112314 101.739364 43 105.3308 20 112.815448 0 210"></polygon>
                    <polygon id="Path" fill="#787878" points="11.5 218 0 209.785714 50.4811116 106.450349 52.1666667 103 72 181.622449 10.5 218"></polygon>
                    <polygon id="Path" fill="#787878" points="16 252 11.3846154 218.166667 1 210"></polygon>
                    <polygon id="Path" fill="#D6D6D6" points="59 253 16.744186 252.893007 12 219"></polygon>
                    <polygon id="Path" fill="#D6D6D6" points="42.7647059 221 71 182 11 218.636364"></polygon>
                    <polygon id="Path" fill="#A4A4A4" points="57 252 11 218 42.8461538 220.344828"></polygon>
                    <polygon id="Path" fill="#787878" points="100 183.739364 71 182 89.56 254 93.3648 228.587541 100 184.360656"></polygon>
                    <polygon id="Path" fill="#D6D6D6" points="155 251.636364 90 254 93.5454545 228"></polygon>
                    <polygon id="Path" fill="#A4A4A4" points="91 227.3308 155 253 128.019231 220"></polygon>
                    <polygon id="Path" fill="#D6D6D6" points="99 183.739364 93.5227587 227.3308 127.95122 220.864865 142 186.378378"></polygon>
                    <polygon id="Path" fill="#343434" opacity="0.9" points="71 181.072787 110.969965 165 141 187"></polygon>
                    <polygon id="Path" fill="#D6D6D6" points="209.18468 161.3308 141.593243 173.942806 149.052632 98"></polygon>
                    <polygon id="Path" fill="#787878" points="137 30 239 75.7241379 148.724138 98"></polygon>
                    <polygon id="Path" fill="#A4A4A4" points="191 6.8 137.333333 30 128 1"></polygon>
                    <polygon id="Path" fill="#D6D6D6" points="247 16.3559322 190.829787 7 137 30.3898305 238.808511 76"></polygon>
                    <polygon id="Path" fill="#D6D6D6" points="342 75 239 76.1875 267.090909 113"></polygon>
                    <polygon id="Path" fill="#343434" points="321.90625 128 268 112.688889 343 75"></polygon>
                    <polygon id="Path" fill="#D6D6D6" points="343 184 325.421875 184 268 112 321.90625 127.344262 321.90625 159.213115"></polygon>
                    <polygon id="Path" fill="#787878" points="356 237 345.376538 218.826889 325 184 342.884615 184"></polygon>
                    <polygon id="Path" fill="#D6D6D6" points="321.593243 227.3308 324.178571 242 356 237.368421 345.18468 217.5 322 228.739364"></polygon>
                    <polygon id="Path" fill="#D6D6D6" points="253 178 322.589744 229 345.593243 218.5 324.948718 183.930233"></polygon>
                    <polygon id="Path" fill="#FFFFFF" opacity="0.9" points="267.163934 112 253 178.098361 325 184"></polygon>
                    <polygon id="Path" fill="#787878" points="239 76 253 178 267 112.344828"></polygon>
                    <polygon id="Path" fill="#A4A4A4" points="250 156 209.073436 159.848439 142 172.833968 142 187 237.314883 170.472963"></polygon>
                    <polygon id="Path" fill="#A4A4A4" points="225 189 236.666667 170.142857 249.5 156 253 178.392857"></polygon>
                    <polygon id="Path" fill="#787878" points="240.933054 252 225 188.867871 253 178"></polygon>
                    <polygon id="Path" fill="#D6D6D6" points="268 230.860768 241 251 253 177.3308 277 195.491195 270.238281 227.448675"></polygon>
                    <polygon id="Path" fill="#A4A4A4" points="291 255 256 239.376364 268.662076 229"></polygon>
                    <polygon id="Path" fill="#D6D6D6" points="239.593243 251 255.593243 239 291 255 239 252.692308"></polygon>
                    <polygon id="Path" fill="#A4A4A4" points="238.18468 76.3308 343 76.3308 289.329545 22"></polygon>
                    <polygon id="Path" fill="#787878" points="246.18468 16.3308 238.18468 77.3308 290 22.2153846 267.465116 0"></polygon>
                    <polygon id="Path" fill="#343434" opacity="0.9" points="209 159 239.457143 76 250 155.492958"></polygon>
                    <polygon id="Path" fill="#787878" points="343.593243 73.3308 353.18468 108.739364 321 128 342.461538 75"></polygon>
                    <polygon id="Path" fill="#A4A4A4" points="392.18468 111 351.55 109 321 128 364.475 118.5 415 120.875 389.15 111.375"></polygon>
                    <polygon id="Path" fill="#787878" points="403.037037 80 390 111.628571 416.074074 121 422 98.7428571"></polygon>
                    <polygon id="Path" fill="#343434" points="411.454545 81.1666667 402 80 420.909091 98.6666667 428 101"></polygon>
                    <polygon id="Path" fill="#787878" points="415 121 428 101.315789 420.909091 99"></polygon>
                    <polygon id="Path" fill="#D6D6D6" points="343 74.5294118 352.593243 109.739364 391.18468 111.3308 403 79.2352941 374.764706 51"></polygon>
                    <polygon id="Path" fill="#D6D6D6" points="400.593243 57.7393638 402 79 412 81 409.75 59"></polygon>
                    <polygon id="Path" fill="#A4A4A4" points="374 51 402 58 402 79"></polygon>
                    <polygon id="Path" fill="#D6D6D6" points="378.666667 34 374 51.8571429 402 59"></polygon>
                    <polygon id="Path" fill="#787878" points="378.593243 35.7393638 401.593243 58.7393638 410 59 383.769231 28"></polygon>
                    <polygon id="Path" fill="#343434" points="384 12.5384615 373 3 379.111111 34 384 28.0384615"></polygon>
                    <polygon id="Path" fill="#A4A4A4" points="364 24.0731707 373.230769 3 379 33.4390244 374.384615 51"></polygon>
                    <polygon id="Path" fill="#D6D6D6" points="268 0 363.963697 24.7641509 366 30 290.235491 22.4056604"></polygon>
                    <polygon id="Path" fill="#FFFFFF" points="64 58.3308 138 29.1666667 128.557377 0"></polygon>
                    <polygon id="Path" fill="#FFFFFF" points="51 102 70.9423077 181 112 165.671642"></polygon>
                    <polygon id="Path" fill="#FFFFFF" points="148 97.4305556 238 75 207.61039 160"></polygon>
                    <polygon id="Path" fill="#FFFFFF" points="267.593243 110.3308 253 177.935484 326.593243 184.3308 268.18468 111.3308"></polygon>
                    <polygon id="Path" fill="#FFFFFF" points="289 21 365.575342 29.2173913 375 51.5217391 342.013699 75 290.178082 22.173913"></polygon>
                </g>
            </g>
        </g>
    </g>
</svg>